# xmcd
#
# Track frame offsets:
#  150
#  16652
#  34592
#  49165
#  64343
#  86172
#  105089
#  118137
#  132971
#  145167
#  161793
#  179173
#  197552
#  213045
#  231608
#  248187
#  264876
#  279072
#  292500
#  308467
#  319270
#  332908
#
# Disc length: 4693 seconds
#
# Revision: 0
# Processed by: cddbd v1.5.1PL2 Copyright (c) Steve Scherf et al.
# Submitted via: Collectorz.com_Music_Collector 6.11
#
DISCID=34125316
DTITLE=joe nichols - Joe Nichols
DYEAR=1900
DGENRE=Country
TTITLE0=Cant Hide Beatiful
TTITLE1=If Nobody Believed In You
TTITLE2=Wal-Mart Parking Lot
TTITLE3=To Tell You The Truth, I Lied 1
TTITLE4=Just a closer walk
TTITLE5=Leave the past behind
TTITLE6=Size Matters
TTITLE7=She Couldn't Care Less
TTITLE8=Joe's Place
TTITLE9=Can't Hold A Halo To You
TTITLE10=Brokenheartsville
TTITLE11=The Impossible
TTITLE12=she only smokes when she drinks
TTITLE13=That Would Be Her
TTITLE14=Don't Ruin It For The Rest Of Us
TTITLE15=What If She's An Angel
TTITLE16=I Hate The Way I Love You
TTITLE17=Cool To Be A Fool
TTITLE18=Things Like That [These Days]
TTITLE19=What's A Guy Gotta Do
TTITLE20=Life Don't Have To Mean Nothin' At All
TTITLE21=No Time To Cry
EXTD=
EXTT0=
EXTT1=
EXTT2=
EXTT3=
EXTT4=
EXTT5=
EXTT6=
EXTT7=
EXTT8=
EXTT9=
EXTT10=
EXTT11=
EXTT12=
EXTT13=
EXTT14=
EXTT15=
EXTT16=
EXTT17=
EXTT18=
EXTT19=
EXTT20=
EXTT21=
PLAYORDER=
